HIERARCHY
ROOT Torso
{
	OFFSET 0.000000 0.000000 0.000000
	CHANNELS 6 Xposition Yposition Zposition Zrotation Yrotation Xrotation
	JOINT TorsoExt
	{
		OFFSET 0.000000 0.000000 0.000000
		CHANNELS 6 Xposition Yposition Zposition Zrotation Yrotation Xrotation
		JOINT LeftHip
		{
			OFFSET 0.000000 0.010000 -0.060000
			CHANNELS 3 Zrotation Yrotation Xrotation
			JOINT LeftThigh
			{
				OFFSET 0.055000 0.000000 -0.055000
				CHANNELS 6 Xposition Yposition Zposition Zrotation Yrotation Xrotation
				JOINT LeftLeg
				{
					OFFSET 0.000000 -0.015000 -0.120000
					CHANNELS 6 Xposition Yposition Zposition Zrotation Yrotation Xrotation
					JOINT LeftFoot
					{
						OFFSET 0.000000 0.010000 -0.100000
						CHANNELS 6 Xposition Yposition Zposition Zrotation Yrotation Xrotation
						End Site
						{
							OFFSET 0.000000 -0.090000 -0.035000
						}
					}
				}
			}
		}
		JOINT RightHip
		{
			OFFSET 0.000000 0.010000 -0.060000
			CHANNELS 3 Zrotation Yrotation Xrotation
			JOINT RightThigh
			{
				OFFSET -0.055000 0.000000 -0.055000
				CHANNELS 6 Xposition Yposition Zposition Zrotation Yrotation Xrotation
				JOINT RightLeg
				{
					OFFSET 0.000000 -0.015000 -0.120000
					CHANNELS 6 Xposition Yposition Zposition Zrotation Yrotation Xrotation
					JOINT RightFoot
					{
						OFFSET 0.000000 0.010000 -0.100000
						CHANNELS 6 Xposition Yposition Zposition Zrotation Yrotation Xrotation
						End Site
						{
							OFFSET 0.000000 -0.090000 -0.035000
						}
					}
				}
			}
		}
	}
	JOINT Neck
	{
		OFFSET 0.000000 -0.000000 0.040000
		CHANNELS 6 Xposition Yposition Zposition Zrotation Yrotation Xrotation
		JOINT Head
		{
			OFFSET 0.000000 -0.000000 0.100000
			CHANNELS 6 Xposition Yposition Zposition Zrotation Yrotation Xrotation
			End Site
			{
				OFFSET 0.000000 -0.000000 0.070000
			}
		}
	}
	JOINT LeftUpperarm
	{
		OFFSET 0.098000 -0.000000 0.075000
		CHANNELS 6 Xposition Yposition Zposition Zrotation Yrotation Xrotation
		JOINT LeftLowerarm
		{
			OFFSET 0.000000 -0.090000 0.009000
			CHANNELS 6 Xposition Yposition Zposition Zrotation Yrotation Xrotation
			End Site
			{
				OFFSET 0.000000 -0.105000 0.000000
			}
		}
	}
	JOINT RightUpperarm
	{
		OFFSET -0.098000 -0.000000 0.075000
		CHANNELS 6 Xposition Yposition Zposition Zrotation Yrotation Xrotation
		JOINT RightLowerarm
		{
			OFFSET 0.000000 -0.090000 0.009000
			CHANNELS 6 Xposition Yposition Zposition Zrotation Yrotation Xrotation
			End Site
			{
				OFFSET 0.000000 -0.105000 0.000000
			}
		}
	}
}
MOTION
Frames: 5
Frame Time: 0.041667
0.000000 0.000000 0.000000 0.000000 -0.000000 0.000000 0.000000 0.000000 0.000000 0.000000 -0.000000 -0.000001 -35.404467 -2.071626 9.088881 0.054999 0.000000 -0.054999 -155.310510 -8.839000 31.602213 -0.000000 -0.015000 -0.119999 0.000087 0.000028 -36.078623 0.000000 0.010000 -0.100000 -179.311085 25.192091 -15.356803 31.062488 -3.818286 7.559494 -0.055000 -0.000000 -0.055002 146.974019 3.875383 26.614460 -0.000000 -0.015000 -0.120000 -0.000059 -0.000000 -78.971959 -0.000000 0.010000 -0.100000 159.314094 -25.329866 6.813593 0.000000 0.000000 0.040002 -1.956956 -1.229009 -5.881857 -0.000000 0.000000 0.100000 -1.840305 0.581858 25.272856 0.097998 0.000000 0.075000 -23.404043 180.482667 -95.218144 0.000000 -0.089998 0.009002 -17.864764 3.204002 25.889462 -0.097998 0.000000 0.075000 16.063019 -180.034566 -89.028763 0.000000 -0.090000 0.009000 14.541708 -1.805232 19.790043 
0.000000 0.000000 0.000000 0.000000 -0.000000 0.000000 0.000000 0.000000 0.000000 0.000000 -0.000000 -0.000001 -35.296048 -2.267328 9.066297 0.055000 -0.000000 -0.055000 -155.496701 -9.082739 30.905465 -0.000000 -0.015000 -0.119999 0.000071 0.000057 -35.877044 0.000000 0.010000 -0.100000 -179.357298 25.222236 -15.783222 31.182713 -3.875721 7.370616 -0.055000 0.000000 -0.055001 146.484390 3.763951 28.193387 -0.000000 -0.015000 -0.119999 -0.000002 -0.000072 -81.018263 -0.000001 0.010000 -0.100000 159.069888 -25.662793 5.513595 0.000000 0.000000 0.040002 -1.948465 -1.736037 -6.221717 0.000000 0.000001 0.100002 -1.060396 0.888224 25.127375 0.098002 0.000000 0.075000 -23.964234 180.327458 -95.297422 -0.000000 -0.090002 0.009000 -17.998938 3.269326 26.140068 -0.098002 -0.000000 0.075000 15.960716 -180.055125 -88.925177 -0.000000 -0.089998 0.009000 14.362785 -1.741506 19.466681 
0.000000 0.000000 0.000000 0.000000 -0.000000 0.000000 0.000000 0.000000 0.000000 0.000000 -0.000000 -0.000001 -35.581737 -2.755941 9.136814 0.055001 -0.000001 -0.055001 -155.755770 -9.710219 30.082424 -0.000000 -0.015000 -0.120000 0.000106 0.000010 -35.802332 -0.000000 0.010000 -0.100000 -179.100496 25.292858 -16.358674 30.929518 -4.135205 6.949618 -0.055000 0.000000 -0.055001 146.187208 3.119601 29.577526 -0.000000 -0.015000 -0.119999 -0.000018 -0.000009 -82.782296 -0.000000 0.010000 -0.100000 159.655658 -26.152724 3.063408 -0.000000 -0.000001 0.039998 -2.092002 -1.765079 -5.388116 -0.000000 -0.000000 0.099998 -1.361966 0.933448 24.695384 0.097998 0.000001 0.075001 -24.424575 180.213886 -95.459339 0.000000 -0.090000 0.009000 -18.217972 3.377667 26.550149 -0.098000 0.000000 0.075000 16.084281 -180.196223 -89.116278 0.000000 -0.090000 0.009000 14.425431 -1.763687 19.579924 
0.000000 0.000000 0.000000 0.000000 -0.000000 0.000000 0.000000 0.000000 0.000000 0.000000 -0.000000 -0.000001 -34.965914 -3.057510 9.190066 0.055000 0.000000 -0.055000 -156.036805 -10.106849 29.542221 -0.000000 -0.015000 -0.120000 0.000049 0.000010 -35.681366 0.000000 0.010000 -0.100000 -179.590822 25.271403 -16.727729 31.566894 -4.304137 6.693503 -0.055000 -0.000001 -0.054999 145.196544 2.873974 31.083364 0.000000 -0.015000 -0.120000 0.000018 -0.000015 -84.346307 -0.000000 0.010000 -0.100000 159.566292 -26.555945 1.173915 0.000000 0.000000 0.039998 -2.473368 -1.692625 -5.955182 -0.000000 -0.000001 0.099998 -1.340023 0.853042 25.577785 0.098000 -0.000000 0.075000 -24.569140 180.009171 -95.431533 -0.000000 -0.090000 0.009001 -18.270010 3.403694 26.647595 -0.098000 -0.000000 0.075000 15.950802 -180.272871 -89.184519 -0.000000 -0.090002 0.009000 14.396174 -1.753305 19.527135 
0.000000 0.000000 0.000000 0.000000 -0.000000 0.000000 0.000000 0.000000 0.000000 0.000000 -0.000000 -0.000001 -34.803529 -3.306576 9.152736 0.055000 -0.000000 -0.055000 -156.218133 -10.417390 28.810339 -0.000000 -0.015000 -0.120001 0.000104 -0.000004 -35.482303 0.000001 0.010000 -0.100000 -179.689464 25.290471 -17.127273 31.745654 -4.369085 6.449497 -0.055000 0.000000 -0.055000 144.619885 2.689526 32.386131 0.000000 -0.015000 -0.120000 -0.000064 -0.000040 -85.681527 0.000000 0.010000 -0.100000 160.460022 -26.846528 -0.770861 0.000000 0.000000 0.040000 -2.455236 -2.111291 -4.860614 0.000000 0.000001 0.100004 -1.105189 1.192649 24.341435 0.098000 -0.000000 0.075000 -24.764102 179.867691 -95.591223 -0.000000 -0.089998 0.009001 -18.371320 3.454644 26.837770 -0.097998 0.000000 0.075000 15.804658 -180.437287 -89.445125 -0.000000 -0.090000 0.009000 14.468236 -1.778923 19.657245 
